<svg height="512" viewBox="0 0 64 64" width="512" xmlns="http://www.w3.org/2000/svg"><g id="response-mobile-phone-website-smartphone"><path d="m9 20h16a3 3 0 0 0 3-3v-8a3 3 0 0 0 -3-3h-16a3 3 0 0 0 -3 3v8a3 3 0 0 0 3 3zm-1-11a1 1 0 0 1 1-1h16a1 1 0 0 1 1 1v8a1 1 0 0 1 -1 1h-16a1 1 0 0 1 -1-1z"/><path d="m6 22h34v2h-34z"/><path d="m6 26h34v2h-34z"/><path d="m20 46h20v2h-20z"/><path d="m20 50h20v2h-20z"/><path d="m20 38h20v2h-20z"/><path d="m20 42h20v2h-20z"/><path d="m20 30h20v2h-20z"/><path d="m20 34h20v2h-20z"/><path d="m15 30h-6a3 3 0 0 0 -3 3v16a3 3 0 0 0 3 3h6a3 3 0 0 0 3-3v-16a3 3 0 0 0 -3-3zm1 19a1 1 0 0 1 -1 1h-6a1 1 0 0 1 -1-1v-16a1 1 0 0 1 1-1h6a1 1 0 0 1 1 1z"/><path d="m59 28h-13v-17a1.033 1.033 0 0 0 -.29-.71l-8-8a1.033 1.033 0 0 0 -.71-.29h-30a5 5 0 0 0 -5 5v44a5 5 0 0 0 5 5h34a5.566 5.566 0 0 0 1-.11v3.11a3.009 3.009 0 0 0 3 3h14a3.009 3.009 0 0 0 3-3v-28a3.009 3.009 0 0 0 -3-3zm-3 2a1 1 0 0 1 -1 1h-6a1 1 0 0 1 -1-1zm-18-24.59 4.59 4.59h-4.59zm4 25.59v22.8a2.829 2.829 0 0 1 -1 .2h-34a3.009 3.009 0 0 1 -3-3v-44a3.009 3.009 0 0 1 3-3h29v7a1 1 0 0 0 1 1h7v16.18a3.01 3.01 0 0 0 -2 2.82zm18 28a1 1 0 0 1 -1 1h-14a1 1 0 0 1 -1-1v-28a1 1 0 0 1 1-1h1a3.009 3.009 0 0 0 3 3h6a3.009 3.009 0 0 0 3-3h1a1 1 0 0 1 1 1z"/><path d="m47 42h6a1 1 0 0 0 1-1v-5a1 1 0 0 0 -1-1h-6a1 1 0 0 0 -1 1v5a1 1 0 0 0 1 1zm1-5h4v3h-4z"/><path d="m51 48h-4a1 1 0 0 0 -1 1v8a1 1 0 0 0 1 1h4a1 1 0 0 0 1-1v-8a1 1 0 0 0 -1-1zm-1 8h-2v-6h2z"/><path d="m46 44h12v2h-12z"/><path d="m54 48h4v2h-4z"/><path d="m54 52h4v2h-4z"/><path d="m54 56h4v2h-4z"/><path d="m53 20v2h2v-2a5.006 5.006 0 0 0 -5-5h-2v2h2a3 3 0 0 1 3 3z"/><path d="m53 24h2v2h-2z"/></g></svg>